<svg width="22" height="22" viewBox="0 0 22 22" fill="none" xmlns="http://www.w3.org/2000/svg">
<g id="github-original 1" clip-path="url(#clip0_113_65)">
<g id="Group">
<path id="Vector" fill-rule="evenodd" clip-rule="evenodd" d="M10.9998 0.877075C5.26828 0.877075 0.620605 5.52372 0.620605 11.2563C0.620605 15.8422 3.59456 19.7326 7.71853 21.1052C8.23707 21.2015 8.42751 20.8801 8.42751 20.6059C8.42751 20.3584 8.41789 19.5408 8.41342 18.6735C5.52592 19.3014 4.91662 17.4489 4.91662 17.4489C4.44448 16.2492 3.7642 15.9302 3.7642 15.9302C2.82232 15.286 3.83518 15.2995 3.83518 15.2995C4.87726 15.3725 5.42623 16.369 5.42623 16.369C6.35195 17.9554 7.85431 17.4969 8.44659 17.2318C8.53975 16.561 8.80873 16.103 9.10556 15.8438C6.8002 15.5817 4.37659 14.6915 4.37659 10.7145C4.37659 9.58134 4.78221 8.65545 5.44617 7.92842C5.33823 7.66717 4.98296 6.61151 5.54654 5.18186C5.54654 5.18186 6.41795 4.9029 8.40139 6.24576C9.22948 6.01562 10.1176 5.89995 10.9998 5.896C11.8815 5.89995 12.7701 6.01528 13.5997 6.24542C15.5808 4.90256 16.4512 5.18151 16.4512 5.18151C17.0161 6.611 16.6608 7.66682 16.5531 7.92807C17.2186 8.65511 17.6213 9.581 17.6213 10.7142C17.6213 14.7006 15.1932 15.5782 12.882 15.8354C13.2544 16.1575 13.5862 16.7893 13.5862 17.7574C13.5862 19.1462 13.5741 20.2639 13.5741 20.6057C13.5741 20.882 13.7611 21.2056 14.2871 21.1037C18.4086 19.7297 21.3792 15.8405 21.3792 11.2563C21.379 5.52406 16.7318 0.877075 10.9998 0.877075Z" fill="white"/>
<path id="Vector_2" d="M4.55159 15.7792C4.52873 15.8307 4.44761 15.8462 4.3737 15.8109C4.29808 15.7773 4.25597 15.707 4.28037 15.6552C4.30272 15.6019 4.38401 15.5873 4.45912 15.6229C4.53475 15.6568 4.57772 15.7278 4.55142 15.7793L4.55159 15.7792ZM4.972 16.2482C4.92267 16.2941 4.8259 16.2728 4.76025 16.2001C4.69219 16.1279 4.67947 16.0311 4.72983 15.9845C4.78104 15.9388 4.87489 15.9605 4.94295 16.0327C5.01067 16.1059 5.02408 16.2018 4.97217 16.2484L4.972 16.2482ZM5.3814 16.8458C5.31781 16.8902 5.21365 16.8487 5.14937 16.7564C5.08578 16.664 5.08578 16.5531 5.15109 16.5089C5.2152 16.4646 5.31781 16.5046 5.38312 16.5961C5.44637 16.6897 5.44637 16.8008 5.3814 16.8458ZM5.94189 17.4235C5.88517 17.4862 5.76383 17.4694 5.67514 17.3839C5.58456 17.3002 5.5593 17.1811 5.61619 17.1186C5.67394 17.0557 5.7958 17.0732 5.885 17.1581C5.97558 17.2416 6.0029 17.3609 5.94223 17.4233L5.94189 17.4235ZM6.71533 17.7588C6.69006 17.8401 6.57353 17.8771 6.4558 17.8423C6.3384 17.8068 6.26158 17.7117 6.28564 17.6296C6.3097 17.5476 6.42709 17.5092 6.54551 17.5462C6.6629 17.5816 6.73973 17.6761 6.71533 17.7588ZM7.5649 17.8209C7.56783 17.9064 7.46814 17.9773 7.3449 17.979C7.22064 17.9819 7.12009 17.9125 7.11889 17.8282C7.11889 17.7418 7.21651 17.6718 7.34061 17.6694C7.46384 17.6672 7.56508 17.7359 7.56508 17.8207L7.5649 17.8209ZM8.35519 17.6864C8.36997 17.7698 8.2842 17.8556 8.16165 17.8784C8.04134 17.9008 7.92962 17.8489 7.91415 17.7662C7.89937 17.6806 7.98669 17.5948 8.107 17.5727C8.22972 17.5515 8.33972 17.6017 8.35519 17.6864Z" fill="white"/>
</g>
</g>
<defs>
<clipPath id="clip0_113_65">
<rect width="22" height="22" fill="white"/>
</clipPath>
</defs>
</svg>
