<svg width="262" height="324" viewBox="0 0 262 324" fill="none" xmlns="http://www.w3.org/2000/svg">
<path d="M184.313 174.638C184.505 175.211 184.729 175.769 185.173 176.402C185.399 176.715 185.69 177.052 186.097 177.367C186.499 177.681 187.034 177.965 187.632 178.101C188.492 178.315 189.378 178.191 189.997 177.948C190.59 177.725 191.005 177.432 191.341 177.17C191.956 176.659 192.339 176.175 192.713 175.662C193.348 174.777 193.912 173.797 194.534 172.671C195.462 171.001 196.48 169.044 197.652 167.025C197.831 166.717 198.03 166.414 198.219 166.095C193.71 164.226 188.739 162.357 183.264 160.543C183.03 163.292 183.035 166.652 183.521 170.612C183.722 172.259 183.941 173.504 184.313 174.638Z" fill="white"/>
<path d="M160.961 167.697C161.234 168.31 161.563 168.929 162.112 169.559C162.392 169.88 162.729 170.199 163.159 170.484C163.587 170.77 164.113 171.008 164.676 171.144C165.597 171.365 166.57 171.262 167.288 171.014C167.977 170.773 168.482 170.453 168.902 170.133C169.665 169.524 170.163 168.915 170.648 168.267C171.467 167.139 172.179 165.865 172.949 164.416C173.933 162.57 174.975 160.45 176.1 158.281C170.835 156.699 165.174 155.162 159.048 153.689C158.995 153.676 158.943 153.657 158.884 153.643C158.894 156.429 159.142 159.687 159.804 163.437C160.112 165.13 160.437 166.463 160.961 167.697Z" fill="white"/>
<path d="M173.074 190.934C172.531 191.351 172.165 191.795 171.849 192.238C171.53 192.688 171.271 193.151 171.032 193.648C169.891 195.975 169.081 198.438 168.479 200.77C168.122 202.163 167.842 203.506 167.621 204.743C172.792 204.121 177.946 203.397 182.998 202.598C182.557 200.669 182.116 198.74 181.638 197.026C181.264 195.695 180.886 194.496 180.353 193.386C180.08 192.829 179.777 192.28 179.301 191.695C179.055 191.405 178.763 191.103 178.368 190.819C177.976 190.528 177.472 190.26 176.857 190.104C176.087 189.892 175.165 189.936 174.438 190.189C173.888 190.372 173.438 190.643 173.074 190.934Z" fill="white"/>
<path d="M50.6714 103.573C50.0884 108.475 49.8064 114.025 50.4603 119.414C50.6631 121.019 50.929 122.331 51.4899 123.588C51.7813 124.212 52.1558 124.842 52.7369 125.43C53.3092 126.024 54.1499 126.556 55.0806 126.765C55.9623 126.977 56.8348 126.907 57.5259 126.716C58.1943 126.532 58.7277 126.268 59.1979 125.975C60.076 125.415 60.7616 124.779 61.431 124.064C62.6022 122.81 63.7074 121.308 64.8754 119.598C66.6212 117.037 68.4629 114.043 70.3577 111.091C70.7052 110.55 71.0497 110.022 71.4021 109.49C64.8938 104.622 58.4856 99.4842 52.2534 94.1069C51.7105 96.6557 51.1049 99.9321 50.6714 103.573Z" fill="white"/>
<path d="M146.961 193.014C146.389 193.466 145.997 193.933 145.65 194.417C145.315 194.904 145.021 195.423 144.748 195.974C143.442 198.634 142.516 201.469 141.822 204.149C141.566 205.154 141.356 206.113 141.157 207.061C142.854 206.971 144.569 206.872 146.301 206.755C149.97 206.515 153.713 206.202 157.489 205.841C157.012 203.741 156.532 201.655 156.009 199.805C155.576 198.277 155.14 196.909 154.549 195.666C154.249 195.047 153.916 194.449 153.401 193.82C153.143 193.519 152.835 193.2 152.423 192.897C152.017 192.603 151.489 192.321 150.862 192.157C150.067 191.938 149.13 191.986 148.379 192.248C147.807 192.44 147.341 192.72 146.961 193.014Z" fill="white"/>
<path d="M134.989 160.737C135.287 161.244 135.649 161.751 136.166 162.226C136.683 162.701 137.405 163.169 138.306 163.386C139.147 163.595 140.063 163.521 140.773 163.278C141.451 163.055 141.964 162.73 142.373 162.4C143.145 161.786 143.628 161.145 144.082 160.483C144.852 159.321 145.485 158.029 146.154 156.564C146.941 154.803 147.741 152.821 148.579 150.793C142.994 149.057 137.331 147.001 131.592 144.618C131.672 147.989 132.167 152.316 133.612 157.334C134.002 158.655 134.396 159.724 134.989 160.737Z" fill="white"/>
<path d="M79.6177 115.457C79.4062 116.745 79.2023 118.175 79.0148 119.715C78.4191 124.846 78.0849 131.106 79.0057 137.133C79.243 138.656 79.5335 139.897 80.0838 141.11C80.3674 141.711 80.7297 142.331 81.3075 142.933C81.8814 143.52 82.7382 144.097 83.7412 144.332C84.6497 144.55 85.5649 144.476 86.2763 144.26C86.9477 144.064 87.4809 143.772 87.9228 143.478C88.7595 142.915 89.3494 142.3 89.9152 141.636C90.8926 140.49 91.7822 139.153 92.7108 137.651C94.0998 135.404 95.5577 132.782 97.081 130.181C97.5488 129.374 98.0376 128.566 98.5199 127.785C97.8465 127.378 97.1703 126.984 96.4979 126.57C90.8598 123.125 85.2145 119.39 79.6177 115.457Z" fill="white"/>
<path d="M63.9551 172.22C63.1763 172.018 62.402 172.057 61.7643 172.205C60.7931 172.42 60.0464 172.843 59.328 173.323C58.6134 173.817 57.9222 174.415 57.1891 175.13C52.7652 179.501 49.228 184.878 46.624 189.434C47.6568 189.893 48.7592 190.383 49.9409 190.892C54.1049 192.679 59.6319 194.891 66.2997 197.203C66.3805 196.023 66.4889 194.815 66.6062 193.595C67.0232 189.354 67.5914 185.038 67.7549 181.5C67.8282 179.708 67.8269 178.137 67.5457 176.624C67.3931 175.859 67.177 175.092 66.6694 174.261C66.4177 173.85 66.0714 173.423 65.608 173.045C65.1486 172.682 64.5641 172.372 63.9551 172.22Z" fill="white"/>
<path d="M104.845 154.68C105.144 155.243 105.513 155.809 106.072 156.343C106.625 156.875 107.418 157.368 108.327 157.579C109.229 157.796 110.153 157.716 110.867 157.488C111.55 157.274 112.086 156.968 112.534 156.654C113.365 156.055 113.958 155.398 114.537 154.681C115.521 153.445 116.404 151.989 117.339 150.348C118.722 147.889 120.169 145.025 121.653 142.205C121.938 141.664 122.232 141.139 122.52 140.612C116.325 137.706 110.058 134.459 103.739 130.843C103.454 132.521 103.191 134.435 103.01 136.531C102.64 140.866 102.619 145.912 103.639 150.975C103.93 152.392 104.26 153.557 104.845 154.68Z" fill="white"/>
<path d="M118.701 191.485C118.104 192.043 117.612 192.661 117.118 193.37C114.769 196.781 113.01 200.6 111.658 204.091C111.268 205.106 110.928 206.076 110.611 207.017C112.248 207.122 113.914 207.221 115.624 207.29C119.879 207.471 124.354 207.523 129.013 207.459C128.793 204.551 128.577 201.631 128.248 199.09C128.013 197.295 127.738 195.7 127.262 194.239C127.009 193.511 126.725 192.797 126.203 192.048C125.942 191.677 125.616 191.283 125.157 190.92C124.712 190.553 124.117 190.228 123.437 190.051C122.639 189.838 121.768 189.873 121.072 190.086C120.002 190.388 119.289 190.932 118.701 191.485Z" fill="white"/>
<path d="M87.9292 185.888C87.2588 186.4 86.6791 187.004 86.0831 187.702C82.5913 191.87 79.9401 196.773 78.014 200.959C81.1299 201.883 84.4031 202.796 87.8375 203.678C88.2685 203.782 88.6652 203.884 89.0627 203.98C91.7548 204.627 94.6583 205.179 97.7489 205.655C97.7004 201.688 97.7063 197.552 97.425 194.083C97.2625 192.22 97.051 190.564 96.5806 189.019C96.3318 188.244 96.0309 187.485 95.4715 186.69C95.1931 186.301 94.8419 185.894 94.3678 185.535C93.8996 185.177 93.3036 184.858 92.6482 184.693C91.8824 184.495 91.0786 184.512 90.3965 184.664C89.366 184.901 88.5999 185.375 87.9292 185.888Z" fill="white"/>
<path d="M366.578 196.993C371.245 177.56 371.855 156.794 367.32 137.652C365.049 128.08 361.482 118.911 356.469 110.567C351.457 102.215 344.984 94.6906 336.963 88.4425C325.554 79.5408 314.734 75.0461 304.965 72.7108C297.752 70.9764 291.125 70.3922 285.276 69.9536C279.433 69.5227 274.361 69.208 270.26 68.2086C267.88 67.6363 265.837 66.8569 264.033 65.7579C262.228 64.6574 260.628 63.2346 259.111 61.1724C257.238 58.6115 255.008 56.5669 252.55 55.0369C250.087 53.4975 247.416 52.4695 244.652 51.8046C239.658 50.6107 234.345 50.5402 228.764 50.7403C223.173 50.9527 217.291 51.4672 211.175 51.672C208.13 51.7677 205.047 51.4046 201.878 50.6426C196.985 49.466 191.893 47.3367 186.585 44.6226C178.611 40.567 170.174 35.2345 161.036 30.2185C151.888 25.2127 142.015 20.5179 131.07 17.8785C123.028 15.9447 114.404 15.1471 105.197 16.166C99.7722 16.7628 93.9544 17.8595 88.0407 19.9087C79.1673 22.9797 70.0708 28.2607 61.9522 37.0873C53.8135 45.9084 46.6635 58.2015 41.3064 75.2036L40.5161 77.7067L42.4214 79.5249C59.3876 95.6745 78.6257 110.715 98.6946 122.975C118.76 135.22 139.657 144.677 160.015 149.579C203.593 160.052 225.466 173.908 236.339 184.658C239.763 188.035 242.103 191.107 243.714 193.711C253.446 193.66 264.208 194.432 274.731 196.955C283.992 199.182 293.066 202.774 301.004 208.378C308.942 213.983 315.721 221.63 320.318 231.825L316.477 233.566C312.184 224.062 305.952 217.051 298.569 211.824C291.186 206.599 282.621 203.193 273.744 201.059C263.556 198.602 252.99 197.863 243.414 197.931C229.393 198.956 214.848 200.62 202.933 203.19C188.278 206.357 167.62 209.559 146.58 210.959C136.065 211.67 125.45 211.923 115.451 211.504C105.452 211.091 96.0769 210.008 88.0749 208.084C87.6636 207.985 87.2497 207.871 86.8252 207.769L86.7918 207.761C70.3446 203.539 57.2418 198.621 48.2802 194.769C43.7991 192.843 40.3557 191.18 38.0463 190.022C36.8895 189.436 36.0188 188.974 35.4489 188.662C35.1563 188.507 34.9454 188.393 34.811 188.312L34.6566 188.225L34.6246 188.211L34.6262 188.205L29.6059 185.314L28.3968 190.984C28.362 191.187 26.5684 199.521 26.9225 209.86C27.1103 215.031 27.8247 220.722 29.6759 226.203C31.5245 231.668 34.5656 236.986 39.456 241.002C44.493 245.138 51.4626 248.644 59.5725 251.808C67.6718 254.961 76.9076 257.702 86.3283 259.967C102.459 263.846 119.095 266.318 131.506 266.819C135.778 266.992 139.876 267.626 143.907 268.595C153.689 270.933 163.072 275.336 173.022 279.979C182.969 284.609 193.484 289.465 205.557 292.368C216.131 294.911 227.885 295.928 241.29 293.997C254.575 292.087 269.462 287.313 286.551 278.483C298.879 275.453 309.613 272.752 317.999 269.755C322.253 268.225 325.913 266.622 328.95 264.751C330.468 263.805 331.835 262.787 333.026 261.628C334.208 260.475 335.23 259.171 335.962 257.671C336.503 256.559 336.896 255.363 337.23 253.972C337.364 253.414 337.48 252.818 337.591 252.207C351.451 237.994 361.446 218.278 366.578 196.993ZM107.291 49.6665C98.8132 54.851 103.334 59.7952 95.6404 62.0408C90.1968 63.6217 84.7073 59.4117 86.8697 53.4243C88.4687 48.9906 100.215 40.0123 110.604 38.8918C123.447 37.5124 115.353 44.7182 107.291 49.6665ZM235.666 106.905C224.353 120.876 201.296 120.9 173.702 96.7735C166.343 90.3335 160.394 76.0834 173.679 73.7096C186.971 71.3374 205.25 81.3013 219.684 80.796C234.113 80.2887 246.982 92.9217 235.666 106.905ZM271.945 125.391C263.786 126.165 258.383 133.701 253.577 129.657C248.765 125.603 267.851 106.342 273.106 102.542C278.353 98.7471 288.223 96.7792 294.92 102.008C301.609 107.229 300.05 122.752 271.945 125.391ZM335.125 157.212C320.64 157.34 322.575 164.314 316.342 172.212C310.108 180.11 307.075 183.715 297.943 173.566C290.789 165.611 282.949 154.784 294.981 146.836C307.012 138.887 324.646 128.666 333.883 132.34C343.121 136.006 349.616 157.085 335.125 157.212Z" fill="white"/>
</svg>
