<svg width="252" height="404" viewBox="0 0 252 404" fill="none" xmlns="http://www.w3.org/2000/svg">
<g clip-path="url(#clip0_206_106)">
<path d="M100.604 166.355L101.045 166.341L101.518 166.435L101.978 166.596L102.432 166.844L102.912 167.179L103.387 167.568L104.323 168.627L105.294 169.982L106.217 171.606L107.122 173.457L108.013 175.62L109.668 180.523L111.126 186.193L112.394 192.512L113.339 199.318L113.907 206.171L114.116 212.601L113.944 218.454L113.421 223.617L113.02 225.853L112.559 227.884L112.018 229.643L111.405 231.157L110.718 232.419L110.343 232.942L109.955 233.353L109.551 233.705L109.123 233.979L108.655 234.117L108.217 234.246L107.747 234.268L107.274 234.174L106.814 234.013L106.331 233.774L105.87 233.433L105.395 233.044L104.43 231.994L103.501 230.637L102.578 229.013L101.673 227.161L100.786 225.05L99.1308 220.148L97.6438 214.486L96.4053 208.159L95.4601 201.353L94.8635 194.508L94.7175 188.006L94.8894 182.153L95.4129 176.99L95.8134 174.754L96.2743 172.723L96.8068 170.936L97.4197 169.421L98.1072 168.159L98.4912 167.665L98.8699 167.225L99.2745 166.873L99.7107 166.628L100.161 166.432L100.604 166.355Z" fill="white"/>
<path d="M73.727 115.318L74.119 115.139L74.5575 115.01L75.019 114.959L75.4977 114.966L76.0285 115.043L76.556 115.216L77.6694 115.725L78.9308 116.412L80.2495 117.295L81.64 118.421L83.0879 119.742L86.009 122.937L88.9803 126.806L91.9448 131.228L94.8172 136.164L97.3813 141.275L99.3738 146.28L100.968 150.904L102.095 155.125L102.437 157.005L102.625 158.76L102.687 160.373L102.589 161.767L102.357 162.99L102.184 163.518L101.993 163.987L101.732 164.392L101.461 164.768L101.138 165.075L100.761 165.303L100.369 165.482L99.9302 165.611L99.4687 165.662L98.9901 165.655L98.4592 165.578L97.9112 165.443L96.7186 164.989L95.4573 164.302L94.1299 163.39L92.7394 162.264L91.3001 160.972L88.3985 157.771L85.3923 153.891L82.4277 149.469L79.5496 144.514L76.9855 139.403L74.9099 134.476L73.324 129.881L72.2324 125.67L71.8907 123.791L71.7021 122.035L71.6489 120.452L71.7407 119.038L71.9736 117.815L72.1466 117.287L72.3368 116.818L72.5986 116.413L72.8691 116.037L73.1917 115.73L73.727 115.318Z" fill="white"/>
<path d="M31.073 85.3623L31.3469 85.0698L31.6489 84.8009L32.0352 84.6024L32.4273 84.4234L32.895 84.2857L33.4052 84.2202L34.4932 84.1751L35.7722 84.275L37.1836 84.5371L38.7304 84.9712L40.3815 85.5439L44.0021 87.051L47.8934 89.0819L51.962 91.6431L56.1597 94.6427L60.1712 97.909L63.7041 101.168L66.7691 104.385L69.1812 107.434L70.1711 108.889L70.9551 110.257L71.6005 111.55L72.04 112.755L72.2748 113.84L72.3345 114.331L72.3272 114.809L72.2821 115.267L72.171 115.681L72.0164 116.055L71.786 116.388L71.5121 116.68L71.1808 116.958L70.8238 117.147L70.4025 117.335L69.964 117.464L69.4595 117.549L68.3171 117.589L67.0673 117.481L65.6559 117.218L64.1177 116.814L62.4666 116.241L58.8374 114.705L54.9461 112.674L50.8483 110.121L46.6505 107.121L42.6476 103.884L39.1091 100.606L36.1208 97.3984L33.6807 94.326L32.7286 92.8908L31.9067 91.5021L31.2992 90.2302L30.8597 89.0254L30.6163 87.9111L30.5566 87.4204L30.5639 86.9417L30.609 86.4837L30.7201 86.0698L30.8748 85.6959L31.073 85.3623Z" fill="white"/>
<path d="M-24.793 90.2278L-24.8126 89.8735L-24.7445 89.4934L-24.6191 89.1282L-24.4352 88.7458L-24.1647 88.3697L-23.8272 88.0055L-22.9905 87.2509L-21.8832 86.4801L-20.5443 85.7046L-18.9876 84.9497L-17.248 84.2045L-13.199 82.7793L-8.49477 81.4576L-3.25791 80.2544L2.39118 79.3004L8.10575 78.6767L13.4248 78.3282L18.2969 78.2596L22.605 78.5053L24.4251 78.7529L26.106 79.031L27.6006 79.3957L28.8808 79.8235L29.9174 80.323L30.3314 80.6141L30.7447 80.8313L31.0429 81.1247L31.2534 81.4439L31.4152 81.7775L31.5127 82.1088L31.5323 82.4631L31.4642 82.8431L31.3388 83.2083L31.1549 83.5908L30.8845 83.9669L30.5469 84.331L29.7102 85.0857L28.6029 85.8565L27.2641 86.632L25.7366 87.3782L23.9775 88.1292L19.9285 89.5544L15.2535 90.8675L10.0246 92.026L4.37553 92.9799L-1.33904 93.6037L-6.68737 93.9608L-11.5594 94.0294L-15.8675 93.7837L-17.7713 93.5395L-19.4522 93.2615L-20.9468 92.8968L-22.227 92.469L-23.2636 91.9694L-23.6776 91.6783L-24.0537 91.4079L-24.3519 91.1144L-24.5624 90.7952L-24.7241 90.4616L-24.793 90.2278Z" fill="white"/>
<path d="M47.9876 77.7131L48.2745 78.6875L48.5615 79.662L48.8484 80.6364L49.1938 81.5936L49.5392 82.5509L49.9041 83.5023L50.2982 84.4452L50.6401 85.3187L51.0348 86.1556L51.3916 86.9718L51.7777 87.7794L52.1757 88.5199L52.5738 89.2604L52.9575 89.9522L53.3705 90.6354L53.7857 91.2544L54.1642 91.8206L54.5623 92.3811L54.9459 92.8929L55.3416 93.3376L55.6995 93.7617L56.0808 94.1577L56.4655 94.4574L56.8125 94.7365L57.1829 94.9875L57.536 95.18L57.8284 95.0939L58.15 95.1792L58.4544 95.206L58.7502 95.2036L59.023 95.1233L59.2959 95.043L59.5458 94.8847L59.7871 94.6971L60.0111 94.4512L60.2208 94.1564L60.4133 93.8032L60.5886 93.3916L60.7289 92.9691L60.8899 92.5087L60.9958 91.9692L61.0667 91.4189L61.1582 90.8307L61.2033 90.1927L61.234 89.5059L61.2453 88.8249L61.2588 88.0796L61.2356 87.2817L61.1832 86.4923L61.1164 85.6542L61.0497 84.8162L60.9365 83.9282L60.794 83.0489L60.6722 82.1317L60.4862 81.2123L60.3064 80.2063L60.0974 79.2089L59.869 78.2172L59.6405 77.2256L59.3536 76.2512L59.0666 75.2767L58.7797 74.3023L58.4928 73.3278L58.2058 72.3534L57.9189 71.379L57.5735 70.4217L57.2281 69.4645L56.8632 68.513L56.4691 67.5702L56.1272 66.6966L55.7325 65.8598L55.3757 65.0436L54.9896 64.236L54.5916 63.4955L54.1935 62.755L53.8098 62.0632L53.3968 61.38L52.9816 60.761L52.6031 60.1948L52.205 59.6342L51.8214 59.1224L51.4257 58.6777L51.0678 58.2536L50.6865 57.8576L50.3018 57.558L49.9549 57.2789L49.5844 57.0279L49.2313 56.8354L48.8953 56.7014L48.5737 56.6161L48.2693 56.5892L47.9735 56.5916L47.7006 56.672L47.4278 56.7523L47.1779 56.9106L46.9366 57.0981L46.7126 57.3441L46.5028 57.6388L46.3103 57.992L46.135 58.4037L45.9947 58.8262L45.8338 59.2866L45.7279 59.826L45.657 60.3764L45.5655 60.9646L45.5204 61.6026L45.4896 62.2894L45.4784 62.9704L45.4649 63.7156L45.4881 64.5136L45.5405 65.303L45.6072 66.141L45.674 66.9791L45.7872 67.867L45.9296 68.7464L46.0515 69.6635L46.2375 70.583L46.4172 71.589L46.6262 72.5864L46.8547 73.578L47.0832 74.5697L47.3701 75.5441L47.657 76.5185L47.9876 77.7131Z" fill="white"/>
<path d="M49.5196 55.0457L49.6221 54.7825L49.8083 54.5159L50.0031 54.2785L50.3029 54.0738L50.6112 53.8983L50.9849 53.6929L51.8619 53.4347L52.9264 53.2377L54.1589 53.1078L55.5329 53.0632L57.0555 53.0914L60.4963 53.4125L64.3802 54.016L68.5498 54.9061L72.994 56.1177L77.3718 57.5713L81.3834 59.1115L84.9713 60.7235L88.0026 62.3511L89.307 63.1848L90.4297 63.9767L91.3987 64.7502L92.1499 65.5033L92.736 66.199L92.9551 66.5475L93.1169 66.8811L93.2144 67.2124L93.312 67.5437L93.3144 67.8395L93.2497 68.1233L93.1179 68.395L92.9609 68.653L92.7369 68.899L92.4663 69.0952L92.1385 69.2764L91.7757 69.4468L90.8792 69.7108L89.8147 69.9077L88.5823 70.0377L87.2082 70.0823L85.6856 70.0541L82.2535 69.7622L78.3695 69.1587L74.2 68.2686L69.7557 67.057L65.3934 65.6201L61.3819 64.0799L57.8232 62.4592L54.7724 60.8373L53.468 60.0037L52.3453 59.2118L51.3762 58.4382L50.5958 57.6938L50.0235 56.9728L49.8044 56.6243L49.6231 56.2965L49.5256 55.9652L49.428 55.6339L49.4256 55.3381L49.5196 55.0457Z" fill="white"/>
<path d="M93.806 68.1075L93.8667 68.0261L93.9275 67.9447L93.9882 67.8632L94.0954 67.8317L94.2026 67.8001L94.3488 67.7571L94.6216 67.6767L94.9701 67.6376L95.3525 67.6415L95.7727 67.666L96.2393 67.7404L97.2598 67.9694L98.4179 68.3061L99.6104 68.7597L100.843 69.3498L102.104 70.0373L103.245 70.6016L104.244 71.2605L105.008 71.9144L105.334 72.2313L105.641 72.5539L105.875 72.8451L106.071 73.1156L106.266 73.4182L106.329 73.6326L106.361 73.7398L106.392 73.8469L106.357 73.9421L106.321 74.0373L106.261 74.1187L106.206 74.2196L106.128 74.2426L106.021 74.2741L105.913 74.3057L105.504 74.4262L105.15 74.4458L104.787 74.4362L104.367 74.4117L103.9 74.3373L102.866 74.1335L101.708 73.7968L100.51 73.3237L99.2855 72.7629L98.0241 72.0754L96.9124 71.4285L95.937 70.7415L95.1211 70.0922L94.7656 69.784L94.4674 69.4905L94.2277 69.1799L94.0316 68.9094L93.9512 68.6366L93.911 68.5001L93.8795 68.3929L93.8479 68.2858L93.8164 68.1786L93.8519 68.0834L93.806 68.1075Z" fill="white"/>
<path d="M1.60221 121.032L1.88914 122.007L2.17608 122.981L2.46301 123.956L2.8084 124.913L3.1538 125.87L3.51869 126.822L3.88359 127.773L4.25475 128.638L4.62018 129.483L5.00623 130.291L5.39228 131.099L5.78283 131.598L6.18091 132.338L6.56463 133.03L6.97758 133.713L7.37332 134.338L7.75185 134.904L8.14986 135.465L8.53354 135.977L8.92922 136.421L9.28706 136.845L9.66839 137.241L10.0531 137.541L10.4001 137.82L10.7412 138.08L11.0944 138.272L11.4304 138.406L11.752 138.492L12.0564 138.518L12.3522 138.516L12.625 138.436L12.8979 138.355L13.1478 138.197L13.389 138.01L13.6131 137.764L13.8228 137.469L14.0153 137.116L14.1614 136.713L14.3017 136.29L14.4626 135.83L14.6178 135.35L14.6887 134.799L14.7803 134.211L14.8254 133.573L14.8561 132.886L14.8674 132.205L14.8614 131.466L14.8382 130.668L14.7858 129.879L14.719 129.041L14.6523 128.202L14.5391 127.315L14.4258 126.427L14.2748 125.518L14.118 124.59L13.909 123.593L13.7 122.595L13.4716 121.604L13.2431 120.612L12.9562 119.637L12.6692 118.663L12.3823 117.689L12.0954 116.714L11.8084 115.74L11.5215 114.765L11.1761 113.808L10.8307 112.851L10.4658 111.899L10.1009 110.948L9.72975 110.083L9.36432 109.238L8.97827 108.43L8.59222 107.622L8.19415 106.882L7.79608 106.141L7.41235 105.45L6.99941 104.766L6.60366 104.142L6.22513 103.575L5.82712 103.015L5.44346 102.503L5.04776 102.058L4.68992 101.634L4.30859 101.238L3.92384 100.939L3.57694 100.659L3.23576 100.4L2.88258 100.207L2.54661 100.073L2.22499 99.988L1.92058 99.9612L1.62479 99.9636L1.35194 100.044L1.0791 100.124L0.829214 100.283L0.587939 100.47L0.363877 100.716L0.154159 101.011L-0.0383419 101.364L-0.184407 101.767L-0.32472 102.19L-0.485658 102.65L-0.591536 103.189L-0.662435 103.74L-0.753986 104.328L-0.799065 104.966L-0.829801 105.653L-0.841052 106.334L-0.83509 107.073L-0.811912 107.871L-0.759481 108.661L-0.692722 109.499L-0.625964 110.337L-0.512753 111.225L-0.399541 112.113L-0.248504 113.021L-0.0917071 113.949L0.117278 114.947L0.326258 115.944L0.554722 116.936L0.783186 117.927L1.07012 118.902L1.35706 119.876L1.60221 121.032Z" fill="white"/>
<path d="M2.97538 98.401L3.07791 98.1379L3.26413 97.8713L3.45897 97.6339L3.75871 97.4291L4.06707 97.2536L4.40179 97.0598L5.27878 96.8015L6.34325 96.6046L7.5757 96.4746L8.94978 96.43L10.4723 96.4582L13.9131 96.7793L17.7971 97.3829L21.9666 98.273L26.4109 99.4846L30.7675 100.902L34.779 102.442L38.3669 104.054L41.3982 105.682L42.7026 106.516L43.8253 107.307L44.7944 108.081L45.5455 108.834L46.1374 109.549L46.3565 109.898L46.5182 110.231L46.6158 110.563L46.7133 110.894L46.7157 111.19L46.651 111.473L46.5193 111.745L46.3623 112.003L46.1382 112.249L45.8677 112.445L45.5399 112.627L45.177 112.797L44.2806 113.061L43.2161 113.258L41.9836 113.388L40.6096 113.432L39.087 113.404L35.6548 113.112L31.7709 112.509L27.6013 111.619L23.1571 110.407L18.7948 108.97L14.7832 107.43L11.2245 105.809L8.17374 104.188L6.86934 103.354L5.74665 102.562L4.77761 101.788L3.99719 101.044L3.42485 100.323L3.20576 99.9746L3.02451 99.6467L2.92695 99.3154L2.82939 98.9841L2.827 98.6883L2.97538 98.401Z" fill="white"/>
<path d="M123.844 132.286L124.197 132.479L124.501 132.718L124.793 132.992L125.033 133.302L125.29 133.671L125.43 134.075L125.775 135.032L125.984 136.03L126.119 137.208L126.141 138.504L126.072 139.89L125.882 141.365L125.639 142.951L124.789 146.283L123.574 149.817L121.95 153.472L120.063 157.025L118.055 160.168L115.959 162.903L114.886 164.077L113.829 165.129L112.8 166.057L111.779 166.834L110.777 167.457L109.86 167.939L108.886 168.226L108.43 168.297L107.998 168.339L107.586 168.344L107.206 168.276L106.817 168.178L106.452 168.053L106.099 167.861L105.795 167.622L105.503 167.348L105.255 167.008L105.006 166.668L104.799 166.252L104.477 165.373L104.231 164.323L104.116 163.139L104.073 161.881L104.136 160.475L104.326 159L104.607 157.435L105.505 154.121L106.739 150.581L108.334 146.934L110.221 143.382L112.258 140.23L114.354 137.495L115.398 136.33L116.474 135.272L117.503 134.344L118.524 133.567L119.527 132.943L120.452 132.491L121.427 132.204L121.865 132.075L122.297 132.032L122.7 131.998L123.053 132.011L123.442 132.108L123.844 132.286Z" fill="white"/>
<path d="M128.959 132.178L129.214 132.039L129.487 131.959L129.806 131.928L130.127 132.046L130.507 132.114L130.872 132.239L131.732 132.643L132.638 133.202L133.636 133.967L134.678 134.878L135.788 135.917L138.091 138.416L140.531 141.488L143.043 144.984L145.522 148.871L147.756 152.862L149.713 156.702L151.271 160.267L152.439 163.513L152.863 164.955L153.17 166.283L153.378 167.493L153.45 168.531L153.398 169.467L153.335 169.867L153.229 170.226L153.106 170.527L152.926 170.813L152.752 171.013L152.51 171.2L152.295 171.37L152.023 171.45L151.703 171.48L151.361 171.433L150.981 171.365L150.616 171.239L149.764 170.865L148.85 170.277L147.852 169.512L146.81 168.601L145.7 167.562L143.397 165.063L140.965 162.02L138.453 158.524L135.974 154.637L133.74 150.646L131.784 146.807L130.226 143.241L129.058 139.995L128.625 138.524L128.318 137.195L128.139 135.977L128.067 134.94L128.09 134.012L128.152 133.612L128.258 133.253L128.401 132.946L128.552 132.668L128.756 132.46L128.959 132.178Z" fill="white"/>
<path d="M53.5196 149.616L53.7776 149.773L54.0064 149.939L54.1939 150.18L54.3987 150.48L54.5547 150.794L54.658 151.145L54.8406 151.98L54.9619 153.004L54.9467 154.067L54.8296 155.288L54.6282 156.618L53.9808 159.561L52.9901 162.85L51.6802 166.349L50.0367 170.01L48.1845 173.573L46.2777 176.771L44.3175 179.572L42.4317 181.906L41.5033 182.889L40.6018 183.748L39.7479 184.444L38.9318 184.981L38.1534 185.358L37.4421 185.568L37.117 185.579L36.8212 185.581L36.5082 185.525L36.2451 185.422L35.987 185.265L35.7497 185.071L35.5621 184.829L35.3952 184.55L35.2392 184.236L35.1273 183.856L34.9534 183.05L34.8613 182.018L34.8765 180.954L34.9643 179.742L35.1657 178.412L35.8131 175.469L36.8038 172.18L38.143 168.673L39.767 165.018L41.6192 161.454L43.526 158.256L45.4776 155.426L47.3634 153.091L48.2918 152.109L49.2018 151.279L50.0558 150.583L50.8719 150.046L51.6503 149.669L52.0011 149.566L52.3519 149.462L52.6711 149.432L52.9756 149.459L53.2886 149.515L53.5196 149.616Z" fill="white"/>
<path d="M53.5538 143.295L53.7486 143.057L53.9985 142.899L54.2834 142.752L54.6147 142.654L54.9655 142.551L55.3684 142.517L56.3258 142.532L57.4293 142.683L58.6401 142.983L59.9496 143.402L61.3772 143.935L64.5242 145.38L67.8766 147.199L71.5323 149.437L75.3224 152.059L78.9967 154.864L82.241 157.646L85.0771 160.337L87.4031 162.914L88.3419 164.088L89.1562 165.236L89.8261 166.288L90.308 167.205L90.5719 168.102L90.6838 168.482L90.7287 168.85L90.7483 169.204L90.6922 169.517L90.5983 169.809L90.4413 170.067L90.2465 170.305L89.9966 170.463L89.7117 170.61L89.3804 170.708L89.0296 170.811L88.6266 170.845L87.6693 170.831L86.5657 170.679L85.3549 170.379L84.0455 169.96L82.6122 169.408L79.4737 167.992L76.0262 166.137L72.3704 163.899L68.5804 161.277L64.9353 158.464L61.6618 155.69L58.8256 152.999L56.4997 150.422L55.5609 149.248L54.7522 148.12L54.0824 147.068L53.6125 146.084L53.2958 145.224L53.1753 144.815L53.1305 144.447L53.1195 144.122L53.1756 143.809L53.2695 143.516L53.5538 143.295Z" fill="white"/>
<path d="M91.1441 70.9351L91.2221 70.9122L91.3878 70.8634L91.4949 70.8318L91.6193 70.8587L91.7438 70.8856L92.0235 70.9727L92.3303 71.1153L92.6542 71.3164L93.0246 71.5674L93.43 71.8293L94.2631 72.537L95.1714 73.392L96.1199 74.3834L97.0707 75.4906L97.9356 76.6655L98.723 77.7573L99.3636 78.8182L99.92 79.8086L100.058 80.2763L100.237 80.6684L100.446 81.3797L100.468 81.6698L100.508 81.8062L100.473 81.9014L100.446 82.0258L100.405 82.1015L100.363 82.1771L100.303 82.2586L100.225 82.2815L100.03 82.3389L99.9518 82.3619L99.8274 82.335L99.703 82.308L99.4106 82.2141L99.1038 82.0715L98.7799 81.8704L98.4095 81.6194L98.0333 81.349L97.171 80.6499L96.2627 79.7949L95.3434 78.7948L94.3926 77.6876L93.4917 76.5339L92.7122 75.3974L92.0424 74.3451L91.5433 73.3696L91.3276 72.9248L91.2071 72.5156L91.0952 72.1355L90.9977 71.8042L90.9758 71.5142L90.9356 71.3778L90.9711 71.2826L90.998 71.1582L91.0393 71.0825L91.0805 71.0068L91.1441 70.9351Z" fill="white"/>
<path d="M107.828 64.6247L107.851 64.7026L107.816 64.7978L107.774 64.8735L107.714 64.9549L107.659 65.0558L107.569 65.1458L107.319 65.3041L107.01 65.4796L106.63 65.5915L105.673 65.9369L104.564 66.1998L103.305 66.4542L101.878 66.6415L100.376 66.7555L98.8597 66.8207L97.4712 66.8166L96.1728 66.7224L95.0692 66.5709L94.1302 66.4026L93.7358 66.2858L93.3998 66.1518L93.1475 66.0143L93.038 65.93L92.9566 65.8693L92.8752 65.8085L92.8436 65.7014L92.7948 65.5357L92.7719 65.4578L92.8074 65.3626L92.8486 65.2869L92.9036 65.186L92.9644 65.1046L93.0543 65.0145L93.3042 64.8563L93.6126 64.6807L93.9754 64.5104L94.9498 64.2234L96.0412 63.9021L97.2954 63.7022L98.717 63.4954L100.219 63.3814L101.735 63.3161L103.132 63.3495L104.422 63.4144L105.526 63.566L106.473 63.7635L106.875 63.8677L107.205 63.9822L107.463 64.1392L107.564 64.1942L107.654 64.2842L107.735 64.3449L107.767 64.4521L107.815 64.6178L107.828 64.6247Z" fill="white"/>
<path d="M155.881 170.674L155.942 170.592L156.003 170.511L156.064 170.43L156.171 170.398L156.278 170.366L156.434 170.321L156.707 170.24L157.055 170.201L157.438 170.205L157.858 170.23L158.325 170.304L159.345 170.533L160.503 170.87L161.696 171.323L162.928 171.913L164.19 172.601L165.301 173.248L166.3 173.907L167.116 174.556L167.442 174.873L167.749 175.195L167.983 175.486L168.179 175.757L168.327 176.042L168.39 176.256L168.421 176.363L168.453 176.471L168.417 176.566L168.382 176.661L168.321 176.742L168.266 176.843L168.188 176.866L168.081 176.898L167.974 176.929L167.565 177.05L167.21 177.069L166.847 177.06L166.427 177.035L165.961 176.961L164.926 176.757L163.768 176.42L162.57 175.947L161.346 175.387L160.085 174.699L158.973 174.052L157.998 173.365L157.182 172.716L156.826 172.408L156.528 172.114L156.288 171.804L156.092 171.533L156.012 171.26L155.972 171.124L155.94 171.017L155.908 170.909L155.877 170.802L155.912 170.707L155.881 170.674Z" fill="white"/>
<path d="M153.22 173.501L153.298 173.478L153.463 173.43L153.571 173.398L153.695 173.425L153.819 173.452L154.083 173.554L154.389 173.697L154.713 173.898L155.084 174.149L155.482 174.35L156.315 175.057L157.234 175.951L158.183 176.943L159.134 178.05L160.035 179.204L160.814 180.34L161.455 181.401L161.973 182.371L162.169 182.821L162.348 183.213L162.555 183.915L162.577 184.205L162.617 184.341L162.582 184.437L162.555 184.561L162.513 184.637L162.472 184.712L162.411 184.794L162.333 184.817L162.139 184.874L162.061 184.897L161.936 184.87L161.812 184.843L161.535 184.766L161.228 184.623L160.904 184.422L160.534 184.171L160.158 183.901L159.295 183.202L158.387 182.347L157.468 181.347L156.517 180.239L155.616 179.086L154.837 177.949L154.167 176.897L153.668 175.922L153.452 175.477L153.331 175.067L153.22 174.687L153.122 174.356L153.1 174.066L153.06 173.93L153.096 173.834L153.122 173.71L153.164 173.634L153.205 173.559L153.22 173.501Z" fill="white"/>
<path d="M169.933 167.182L169.956 167.26L169.92 167.355L169.879 167.431L169.818 167.513L169.763 167.613L169.673 167.703L169.423 167.862L169.115 168.037L168.735 168.149L167.778 168.495L166.669 168.757L165.41 169.012L163.982 169.199L162.489 169.342L160.973 169.408L159.576 169.374L158.286 169.309L157.182 169.158L156.235 168.96L155.84 168.843L155.51 168.729L155.252 168.572L155.151 168.517L155.061 168.427L154.98 168.366L154.948 168.259L154.919 168.162L154.896 168.084L154.932 167.988L154.973 167.913L155.034 167.831L155.089 167.73L155.179 167.64L155.429 167.482L155.737 167.307L156.117 167.195L157.074 166.849L158.183 166.586L159.442 166.332L160.87 166.145L162.354 165.972L163.871 165.907L165.259 165.911L166.557 166.005L167.652 166.128L168.57 166.26L168.965 166.377L169.308 166.572L169.56 166.709L169.67 166.794L169.751 166.854L169.832 166.947L169.863 167.054L169.912 167.22L169.933 167.182Z" fill="white"/>
<path d="M31.4417 188.637L31.5231 188.698L31.6045 188.758L31.6361 188.866L31.6677 188.973L31.6992 189.08L31.7308 189.187L31.8197 189.489L31.8015 189.823L31.7626 190.194L31.6796 190.632L31.5479 191.084L31.2141 192.071L30.761 193.158L30.1772 194.304L29.4897 195.565L28.7648 196.7L28.0142 197.747L27.2234 198.658L26.4842 199.384L26.1323 199.699L25.801 199.977L25.4818 200.187L25.1969 200.334L24.9241 200.415L24.7877 200.455L24.6805 200.487L24.5733 200.518L24.4781 200.483L24.3829 200.447L24.2878 200.412L24.2064 200.351L24.1249 200.29L24.102 200.212L24.0704 200.105L24.0388 199.998L23.9987 199.861L23.9183 199.588L23.9366 199.255L23.9755 198.883L24.0584 198.446L24.1609 198.003L24.524 197.006L24.9771 195.92L25.5609 194.774L26.2484 193.512L26.9732 192.378L27.7239 191.331L28.5147 190.42L29.2677 189.669L29.5989 189.391L29.9302 189.114L30.2494 188.903L30.5635 188.747L30.8364 188.667L31.08 188.595L31.1579 188.572L31.2823 188.599L31.3448 188.56L31.4417 188.637Z" fill="white"/>
<path d="M35.3621 189.473L35.4573 189.509L35.533 189.55L35.6087 189.591L35.6987 189.681L35.7801 189.742L35.8203 189.878L35.9591 190.134L36.0567 190.465L36.16 190.816L36.2891 191.255L36.3488 191.745L36.4409 192.777L36.4539 194.044L36.4062 195.392L36.2742 196.85L36.0752 198.296L35.8154 199.643L35.5154 200.854L35.1987 201.9L35.0085 202.369L34.8332 202.781L34.67 203.125L34.4837 203.392L34.3181 203.621L34.2282 203.711L34.1382 203.801L34.031 203.832L33.8653 203.881L33.7874 203.904L33.7094 203.927L33.6337 203.886L33.5523 203.825L33.4709 203.764L33.3809 203.674L33.3493 203.567L33.2105 203.312L33.1129 202.98L33.001 202.6L32.8805 202.191L32.8208 201.7L32.7115 200.61L32.7042 199.363L32.7433 197.985L32.8753 196.527L33.0743 195.082L33.3342 193.734L33.6342 192.523L33.9508 191.477L34.1118 191.017L34.2871 190.605L34.4796 190.252L34.6658 189.985L34.8314 189.757L34.9214 189.667L35.0113 189.577L35.1185 189.545L35.2842 189.496L35.3621 189.473Z" fill="white"/>
<path d="M17.7897 193.197L17.7409 193.031L17.718 192.953L17.6864 192.846L17.7414 192.745L17.7683 192.621L17.9253 192.363L18.135 192.068L18.4089 191.776L19.0691 191.105L19.9144 190.379L21.0549 189.578L22.2196 188.822L23.5292 188.055L24.8532 187.337L26.16 186.74L27.3476 186.242L28.439 185.921L29.4134 185.634L29.8107 185.58L30.165 185.561L30.4607 185.558L30.5851 185.585L30.6803 185.621L30.7812 185.676L30.8569 185.717L30.9383 185.778L30.9613 185.856L31.0101 186.021L31.0416 186.129L31.0061 186.224L30.9792 186.348L30.9242 186.449L30.7925 186.721L30.577 186.996L30.3088 187.308L29.9919 187.634L29.6165 187.978L28.7712 188.703L27.7224 189.457L26.5286 190.221L25.2189 190.988L23.8863 191.677L22.6145 192.285L21.4182 192.753L20.3269 193.075L19.3524 193.362L18.9552 193.415L18.6009 193.435L18.3051 193.437L18.1807 193.41L18.0855 193.375L17.9846 193.32L17.909 193.278L17.8275 193.218L17.7897 193.197Z" fill="white"/>
<path d="M17.0619 138.4L17.1227 138.319L17.1834 138.237L17.2442 138.156L17.3513 138.124L17.4585 138.093L17.595 138.052L17.8678 137.972L18.2163 137.933L18.5792 137.943L18.9994 137.967L19.466 138.042L20.506 138.265L21.6583 138.582L22.8566 139.055L24.0807 139.616L25.342 140.303L26.4538 140.95L27.4526 141.609L28.2685 142.258L28.5948 142.575L28.893 142.869L29.1619 143.171L29.3288 143.45L29.4619 143.686L29.5021 143.822L29.5336 143.93L29.5652 144.037L29.5968 144.144L29.5613 144.239L29.5258 144.334L29.465 144.416L29.4043 144.497L29.3435 144.579L29.2363 144.61L29.1292 144.642L28.9927 144.682L28.6907 144.771L28.3714 144.801L27.989 144.797L27.5602 144.744L27.0936 144.669L26.0593 144.466L24.9013 144.129L23.7088 143.675L22.4847 143.114L21.2233 142.427L20.1116 141.78L19.142 141.113L18.2968 140.472L17.9705 140.155L17.6637 139.832L17.4298 139.541L17.2336 139.271L17.1447 138.969L17.1131 138.861L17.0815 138.754L17.05 138.647L17.0184 138.54L17.0539 138.445L17.0619 138.4Z" fill="white"/>
<path d="M14.3623 141.207L14.4402 141.184L14.6059 141.135L14.7131 141.104L14.8083 141.139L14.9327 141.166L15.1958 141.268L15.5026 141.411L15.8558 141.604L16.6264 142.171L17.4595 142.879L18.3678 143.734L19.3163 144.725L20.2671 145.832L21.1681 146.986L21.9389 148.093L22.5852 149.174L23.0866 150.085L23.4577 150.95L23.561 151.301L23.6586 151.632L23.6805 151.922L23.7206 152.058L23.7436 152.136L23.7167 152.261L23.6754 152.336L23.6342 152.412L23.5734 152.494L23.4955 152.517L23.3298 152.565L23.2226 152.597L23.0982 152.57L22.9738 152.543L22.7107 152.44L22.4039 152.298L22.08 152.097L21.7096 151.846L21.2956 151.555L20.4625 150.847L19.5541 149.992L18.6349 148.992L17.6841 147.885L16.7832 146.731L16.0124 145.624L15.3367 144.552L14.8354 143.641L14.6392 143.19L14.4516 142.769L14.2508 142.087L14.2289 141.797L14.1887 141.66L14.2243 141.565L14.2512 141.441L14.2924 141.365L14.3337 141.289L14.3623 141.207Z" fill="white"/>
<path d="M31.0571 134.935L31.08 135.013L31.0445 135.108L31.0033 135.184L30.9425 135.266L30.8875 135.366L30.7976 135.456L30.5477 135.615L30.2393 135.79L29.8593 135.902L28.9021 136.248L27.7935 136.511L26.5341 136.765L25.1068 136.952L23.6049 137.066L22.0887 137.131L20.7002 137.127L19.4018 137.033L18.2983 136.882L17.3592 136.713L16.9648 136.596L16.6288 136.462L16.3765 136.325L16.267 136.241L16.1856 136.18L16.1042 136.119L16.0726 136.012L16.0238 135.846L16.0009 135.768L16.0364 135.673L16.0776 135.598L16.1326 135.497L16.1934 135.415L16.2834 135.325L16.5332 135.167L16.8416 134.991L17.2044 134.821L18.1788 134.534L19.2702 134.213L20.5382 133.988L21.9598 133.781L23.4617 133.667L24.9779 133.602L26.3749 133.635L27.6648 133.7L28.7683 133.851L29.7148 134.081L30.1093 134.198L30.4395 134.312L30.6975 134.469L30.7984 134.524L30.8885 134.614L30.9699 134.675L31.0014 134.782L31.0502 134.948L31.0571 134.935Z" fill="white"/>
<path d="M141.97 270.01L142.366 270.455L142.663 270.96L142.847 271.584L142.989 272.283L143.055 273.048L143.035 273.879L142.795 275.761L142.176 277.902L141.279 280.284L140.068 282.896L138.624 285.725L134.923 291.856L130.277 298.518L124.769 305.562L118.512 312.794L111.899 319.718L105.417 325.863L99.207 331.133L93.473 335.395L90.8079 337.132L88.2923 338.551L86.0158 339.666L83.8612 340.512L82.0217 340.99L81.1923 341.086L80.4235 341.101L79.7282 341.041L79.1228 340.891L78.5638 340.611L78.0838 340.276L77.6882 339.831L77.3911 339.325L77.2074 338.702L77.065 338.002L77.0212 337.242L77.041 336.411L77.3397 334.512L77.9323 332.389L78.8298 330.007L80.0409 327.395L81.4846 324.566L85.1858 318.435L89.8317 311.773L95.3396 304.729L101.545 297.501L108.158 290.577L114.64 284.433L120.85 279.163L126.584 274.901L129.258 273.192L131.765 271.745L134.101 270.654L136.197 269.825L138.037 269.347L138.866 269.251L139.635 269.237L140.33 269.296L140.924 269.408L141.483 269.688L141.97 270.01Z" fill="white"/>
<path d="M67.27 243.423L67.6698 242.479L68.1803 241.588L68.786 240.732L69.473 239.936L70.2261 239.185L71.08 238.489L72.9914 237.248L75.2365 236.206L77.7178 235.391L80.4366 234.77L83.3927 234.344L86.5169 234.166L89.8538 234.242L93.3301 234.468L96.9618 234.934L100.689 235.616L104.508 236.503L108.37 237.642L112.298 239.006L116.138 240.576L119.816 242.278L123.287 244.104L126.606 245.954L129.632 247.996L132.376 250.121L134.895 252.313L137.115 254.529L139.056 256.806L140.699 259.075L142.017 261.324L143.011 263.583L143.662 265.795L143.83 266.868L143.922 267.9L143.907 268.963L143.814 270.05L143.528 271.055L143.223 272.035L142.823 272.978L142.313 273.87L141.707 274.726L141.02 275.521L140.267 276.272L139.413 276.969L137.502 278.209L135.256 279.252L132.784 280.096L130.065 280.717L127.1 281.113L123.976 281.292L120.662 281.293L117.18 281.048L113.554 280.602L109.778 279.934L105.959 279.047L102.097 277.907L98.1696 276.544L94.3294 274.974L90.6515 273.272L87.1804 271.446L83.9386 269.499L80.9124 267.457L78.1687 265.331L75.6296 263.146L73.4099 260.93L71.4687 258.653L69.8262 256.383L68.5076 254.135L67.514 251.875L66.8626 249.663L66.6949 248.59L66.6029 247.559L66.618 246.495L66.7111 245.409L66.9401 244.388L67.27 243.423Z" fill="white"/>
<path d="M107.082 255.96L107.464 256.144L107.841 256.414L108.156 256.766L108.459 257.185L108.727 257.699L108.945 258.26L109.28 259.612L109.492 261.233L109.559 263.077L109.509 265.136L109.33 267.444L108.61 272.548L107.362 278.274L105.658 284.462L103.495 290.997L101.002 297.418L98.3686 303.255L95.6673 308.466L92.9567 312.854L91.6434 314.723L90.3506 316.375L89.114 317.713L87.93 318.835L86.8021 319.643L86.2673 319.949L85.7389 320.168L85.2516 320.312L84.761 320.371L84.3115 320.355L83.8976 320.244L83.5152 320.061L83.139 319.79L82.8041 319.444L82.53 319.016L82.2621 318.502L82.0344 317.945L81.6997 316.592L81.4929 314.991L81.3971 313.155L81.4469 311.023L81.6044 308.753L82.3486 303.62L83.5667 297.903L85.2707 291.715L87.4338 285.18L89.9358 278.788L92.5898 272.913L95.2996 267.731L98.0046 263.324L99.3179 261.455L100.587 259.831L101.83 258.407L103.023 257.314L104.142 256.476L104.685 256.2L105.208 255.961L105.695 255.818L106.219 255.833L106.668 255.849L107.082 255.96Z" fill="white"/>
<path d="M69.3596 241.06L69.9541 241.065L70.5508 241.186L71.1391 241.458L71.7589 241.836L72.381 242.331L72.9705 242.93L74.2041 244.494L75.4131 246.479L76.6269 248.874L77.7932 251.613L78.9263 254.742L81.0468 261.943L82.9807 270.236L84.6403 279.469L85.9109 289.43L86.7395 299.436L87.0383 308.794L86.8489 317.321L86.2018 324.797L85.7569 328.105L85.1679 331.031L84.4843 333.637L83.7094 335.824L82.8431 337.593L82.3802 338.322L81.8857 338.945L81.3705 339.425L80.8294 339.817L80.1909 340.058L79.616 340.227L79.0215 340.222L78.4247 340.101L77.817 339.836L77.2264 339.448L76.6043 338.954L75.977 338.334L74.7812 336.79L73.543 334.815L72.3584 332.41L71.1835 329.643L70.0366 326.539L67.9162 319.338L65.996 311.019L64.345 301.816L63.0744 291.855L62.2458 281.848L61.947 272.491L62.1364 263.964L62.7749 256.458L63.2198 253.151L63.8088 250.224L64.4924 247.619L65.2674 245.432L66.1336 243.662L66.5965 242.933L67.091 242.311L67.6063 241.831L68.1473 241.439L68.705 241.211L69.3596 241.06Z" fill="white"/>
</g>
<defs>
<clipPath id="clip0_206_106">
<rect width="325.058" height="325.058" fill="white" transform="translate(252 312.181) rotate(163.592)"/>
</clipPath>
</defs>
</svg>
