<svg width="160" height="181" viewBox="0 0 160 181" fill="none" xmlns="http://www.w3.org/2000/svg">
<path d="M100.529 5.60949C112.227 9.87009 122.412 16.0938 131.083 24.2805C139.754 32.4673 146.509 41.7519 151.348 52.1344C156.186 62.5169 158.952 73.6608 159.644 85.5661C160.336 97.4714 158.552 109.273 154.291 120.971C150.031 132.668 143.807 142.853 135.62 151.524C127.434 160.196 118.149 166.951 107.766 171.789C97.3839 176.628 86.2401 179.393 74.3347 180.085C62.4294 180.777 50.6279 178.993 38.9303 174.733C31.4607 172.012 24.5137 168.404 18.0894 163.909C11.6651 159.414 5.90447 154.084 0.807398 147.917C16.6864 145.08 30.7572 138.552 43.0199 128.332C55.2826 118.113 64.1859 105.392 69.7298 90.1711C75.2737 74.95 76.6369 59.4833 73.8195 43.7708C71.002 28.0584 64.4257 14.01 54.0906 1.62553C61.9596 0.181559 69.7993 -0.195599 77.6095 0.49406C85.4198 1.18372 93.0597 2.88886 100.529 5.60949Z" fill="white"/>
</svg>
