<svg width="70" height="70" viewBox="0 0 70 70" fill="none" xmlns="http://www.w3.org/2000/svg">
<path d="M39.4304 66.4557C42.9747 47.8481 47.8481 42.9747 66.4557 39.4304C68.6709 38.9873 70 37.2152 70 35C70 32.7848 68.6709 31.0127 66.4557 30.5696C47.8481 27.0253 42.9747 22.1519 39.4304 3.5443C38.9873 1.32911 37.2152 0 35 0C32.7848 0 31.0127 1.32911 30.5696 3.5443C27.0253 22.1519 22.1519 27.0253 3.5443 30.5696C1.77215 31.0127 0 32.7848 0 35C0 37.2152 1.32911 38.9873 3.5443 39.4304C22.1519 42.9747 27.0253 47.8481 30.5696 66.4557C31.0127 68.6709 32.7848 70 35 70C37.2152 70 38.9873 68.2279 39.4304 66.4557Z" fill="white"/>
</svg>
