<svg width="1920" height="278" viewBox="0 0 1920 278" fill="none" xmlns="http://www.w3.org/2000/svg">
<g clip-path="url(#clip0_274_20)">
<rect width="1920" height="278" fill="#03070D"/>
<path d="M-108 356.084C-108 356.084 119.229 182.081 292 151.084C480.851 117.203 613.351 129.644 800 174.084C1031 229.085 1135 295.584 1329.5 261.084C1440.94 241.316 1573.38 83.5578 1650 31.4315C1795 -67.2214 1876 82.0839 2078 261.084C2115.42 294.242 2160.82 302.749 2201.33 301.262L2307.5 276.431C2307.5 276.431 2259.45 299.129 2201.33 301.262L1764.5 403.431H1025C970.6 403.431 545.333 443.765 341 403.431H47.5L-108 356.084Z" fill="#51768C"/>
<path d="M8 3.43135C-164.771 34.4278 -414 356.084 -414 356.084L-258.5 403.431H35C239.333 443.764 664.6 403.431 719 403.431H1458.5L2001.5 276.431C2001.5 276.431 1763.5 297.278 1660.5 232.431C1546.19 160.461 1464.86 45.9319 1334 79.4314C1244.23 102.412 1128.5 203.778 1038 232.431C849.677 292.055 925 316.084 694 261.084C507.351 216.644 196.851 -30.4499 8 3.43135Z" fill="#2E4559"/>
<path d="M152 151.085C-20.7712 182.081 -248 356.085 -248 356.085L-92.5 403.432H201C405.333 443.765 830.6 403.432 885 403.432H1624.5L2167.5 276.432C2167.5 276.432 1929.5 297.279 1826.5 232.432C1712.19 160.462 1610.36 140.585 1479.5 174.085C1389.73 197.065 1300.94 241.317 1189.5 261.084C995 295.584 884.5 263.085 653.5 208.084C466.851 163.644 340.851 117.203 152 151.085Z" fill="#0B1726"/>
</g>
<defs>
<clipPath id="clip0_274_20">
<rect width="1920" height="278" fill="white"/>
</clipPath>
</defs>
</svg>
