<svg width="1920" height="324" viewBox="0 0 1920 324" fill="none" xmlns="http://www.w3.org/2000/svg">
<g clip-path="url(#clip0_274_21)">
<rect width="1920" height="324" fill="#2E4559"/>
<path d="M275 195L-41 3L-67 -61H1903L1861 3L1821 63L1719 117H1551C1536.6 117 1459.67 181 1423 213L1249 323L1045 281L833 89L671 33L427 151L275 195Z" fill="#03070D"/>
<path d="M601 149L285 -43L259 -107H2229L2187 -43L2147 17L2045 71H1877C1862.6 71 1785.67 135 1749 167L1575 277L1371 235L1159 43L997 -13L753 105L601 149Z" fill="#51768C"/>
<path d="M1692 129L2008 -63L2034 -127H64L106 -63L146 -3L248 51H416C430.4 51 507.333 115 544 147L718 257L922 215L1134 23L1296 -33L1540 85L1692 129Z" fill="#0B1726"/>
</g>
<defs>
<clipPath id="clip0_274_21">
<rect width="1920" height="324" fill="white"/>
</clipPath>
</defs>
</svg>
